<mxfile host="app.diagrams.net" modified="2024-02-27T14:56:51.800Z" agent="Mozilla/5.0 (Windows NT 10.0; Win64; x64) AppleWebKit/537.36 (KHTML, like Gecko) Chrome/121.0.0.0 Safari/537.36" etag="_Z0FOAQMfMUmrbbcLlig" version="23.1.7" type="github">
  <diagram name="Página-1" id="6rKVdXdIzm2MLvDsoGoC">
    <mxGraphModel dx="1434" dy="788" grid="0" gridSize="10" guides="1" tooltips="1" connect="1" arrows="1" fold="1" page="1" pageScale="1" pageWidth="827" pageHeight="1169" math="0" shadow="0">
      <root>
        <mxCell id="0" />
        <mxCell id="1" parent="0" />
        <mxCell id="Rnr_XfUdYvVylTMPa90N-5" style="edgeStyle=orthogonalEdgeStyle;rounded=0;orthogonalLoop=1;jettySize=auto;html=1;exitX=0.25;exitY=1;exitDx=0;exitDy=0;entryX=0;entryY=0.5;entryDx=0;entryDy=0;" edge="1" parent="1" source="Rnr_XfUdYvVylTMPa90N-1" target="Rnr_XfUdYvVylTMPa90N-2">
          <mxGeometry relative="1" as="geometry" />
        </mxCell>
        <mxCell id="Rnr_XfUdYvVylTMPa90N-1" value="&lt;b&gt;Usuario Administrador&lt;br&gt;&lt;/b&gt;Dueño" style="rounded=1;whiteSpace=wrap;html=1;fillColor=#fff2cc;strokeColor=#d6b656;" vertex="1" parent="1">
          <mxGeometry x="120" y="80" width="160" height="40" as="geometry" />
        </mxCell>
        <mxCell id="Rnr_XfUdYvVylTMPa90N-6" style="edgeStyle=orthogonalEdgeStyle;rounded=0;orthogonalLoop=1;jettySize=auto;html=1;exitX=0.25;exitY=1;exitDx=0;exitDy=0;entryX=0;entryY=0.5;entryDx=0;entryDy=0;" edge="1" parent="1" source="Rnr_XfUdYvVylTMPa90N-2" target="Rnr_XfUdYvVylTMPa90N-3">
          <mxGeometry relative="1" as="geometry" />
        </mxCell>
        <mxCell id="Rnr_XfUdYvVylTMPa90N-2" value="&lt;b&gt;Usuarios&lt;/b&gt;&lt;br&gt;Postulantes" style="rounded=0;whiteSpace=wrap;html=1;fillColor=#f5f5f5;fontColor=#333333;strokeColor=#666666;" vertex="1" parent="1">
          <mxGeometry x="200" y="140" width="130" height="40" as="geometry" />
        </mxCell>
        <mxCell id="Rnr_XfUdYvVylTMPa90N-10" style="edgeStyle=orthogonalEdgeStyle;rounded=0;orthogonalLoop=1;jettySize=auto;html=1;exitX=0.5;exitY=1;exitDx=0;exitDy=0;entryX=0.5;entryY=0;entryDx=0;entryDy=0;" edge="1" parent="1" source="Rnr_XfUdYvVylTMPa90N-3" target="Rnr_XfUdYvVylTMPa90N-9">
          <mxGeometry relative="1" as="geometry" />
        </mxCell>
        <mxCell id="Rnr_XfUdYvVylTMPa90N-3" value="Editar correo electrónico" style="shape=hexagon;perimeter=hexagonPerimeter2;whiteSpace=wrap;html=1;fixedSize=1;" vertex="1" parent="1">
          <mxGeometry x="280" y="200" width="120" height="80" as="geometry" />
        </mxCell>
        <mxCell id="Rnr_XfUdYvVylTMPa90N-18" style="edgeStyle=orthogonalEdgeStyle;rounded=0;orthogonalLoop=1;jettySize=auto;html=1;exitX=1;exitY=0.5;exitDx=0;exitDy=0;entryX=0;entryY=0.5;entryDx=0;entryDy=0;endArrow=none;endFill=0;" edge="1" parent="1" source="Rnr_XfUdYvVylTMPa90N-9" target="Rnr_XfUdYvVylTMPa90N-16">
          <mxGeometry relative="1" as="geometry" />
        </mxCell>
        <mxCell id="Rnr_XfUdYvVylTMPa90N-9" value="&lt;b&gt;Modal explicativo&lt;br&gt;&lt;/b&gt;Edición de correo electrónico y confiración con paabra clave" style="rounded=0;whiteSpace=wrap;html=1;fillColor=#dae8fc;strokeColor=#6c8ebf;" vertex="1" parent="1">
          <mxGeometry x="230" y="320" width="220" height="60" as="geometry" />
        </mxCell>
        <mxCell id="Rnr_XfUdYvVylTMPa90N-20" style="edgeStyle=orthogonalEdgeStyle;rounded=0;orthogonalLoop=1;jettySize=auto;html=1;exitX=1;exitY=0.5;exitDx=0;exitDy=0;entryX=0;entryY=0.5;entryDx=0;entryDy=0;" edge="1" parent="1" source="Rnr_XfUdYvVylTMPa90N-16" target="Rnr_XfUdYvVylTMPa90N-19">
          <mxGeometry relative="1" as="geometry" />
        </mxCell>
        <mxCell id="Rnr_XfUdYvVylTMPa90N-16" value="" style="shape=message;html=1;html=1;outlineConnect=0;labelPosition=center;verticalLabelPosition=bottom;align=center;verticalAlign=top;" vertex="1" parent="1">
          <mxGeometry x="490" y="340" width="30" height="20" as="geometry" />
        </mxCell>
        <mxCell id="Rnr_XfUdYvVylTMPa90N-19" value="&lt;b&gt;Correo de confirmación de cambio de cuenta&lt;br&gt;&lt;/b&gt;Para el postulante" style="rounded=0;whiteSpace=wrap;html=1;fillColor=#f5f5f5;fontColor=#333333;strokeColor=#666666;" vertex="1" parent="1">
          <mxGeometry x="560" y="325" width="150" height="50" as="geometry" />
        </mxCell>
      </root>
    </mxGraphModel>
  </diagram>
</mxfile>
